<?xml version="1.0" encoding="UTF-8"?>
<svg xmlns="http://www.w3.org/2000/svg" xmlns:xlink="http://www.w3.org/1999/xlink" width="32pt" height="32pt" viewBox="0 0 32 32" version="1.1">
<g id="surface1">
<path style=" stroke:none;fill-rule:nonzero;fill:rgb(21.568627%,68.235294%,88.627451%);fill-opacity:1;" d="M 4.800781 0 L 27.199219 0 C 29.851562 0 32 2.148438 32 4.800781 L 32 27.199219 C 32 29.851562 29.851562 32 27.199219 32 L 4.800781 32 C 2.148438 32 0 29.851562 0 27.199219 L 0 4.800781 C 0 2.148438 2.148438 0 4.800781 0 Z M 4.800781 0 "/>
<path style=" stroke:none;fill-rule:nonzero;fill:rgb(78.431373%,85.490196%,91.764706%);fill-opacity:1;" d="M 12.4375 25.25 C 11.75 25.25 11.8125 25 11.625 24.375 L 9.625 17.8125 L 24.9375 8.8125 "/>
<path style=" stroke:none;fill-rule:nonzero;fill:rgb(66.27451%,78.823529%,86.666667%);fill-opacity:1;" d="M 12.4375 25.25 C 12.875 25.25 13.125 25 13.4375 24.75 L 16.25 22.0625 L 12.75 19.9375 "/>
<path style=" stroke:none;fill-rule:nonzero;fill:rgb(96.470588%,98.431373%,99.607843%);fill-opacity:1;" d="M 12.75 19.9375 L 21.1875 26.125 C 22.0625 26.6875 22.8125 26.375 23.0625 25.25 L 26.5 9.125 C 26.8125 7.75 25.9375 7.125 25 7.5625 L 4.9375 15.3125 C 3.625 15.8125 3.625 16.625 4.6875 16.9375 L 9.875 18.5625 L 21.75 11 C 22.3125 10.6875 22.8125 10.8125 22.4375 11.25 "/>
</g>
</svg>
